<?xml version="1.0" encoding="UTF-8" ?>
<svg version="1.1" width="32" height="32" xmlns="http://www.w3.org/2000/svg" shape-rendering="crispEdges">
<rect x="8" y="5" width="2" height="2" fill="#222034" />
<rect x="14" y="5" width="1" height="5" fill="#222034" />
<rect x="17" y="5" width="1" height="5" fill="#222034" />
<rect x="22" y="5" width="2" height="2" fill="#222034" />
<rect x="7" y="6" width="1" height="2" fill="#222034" />
<rect x="13" y="6" width="1" height="8" fill="#222034" />
<rect x="18" y="6" width="1" height="8" fill="#222034" />
<rect x="24" y="6" width="1" height="2" fill="#222034" />
<rect x="5" y="7" width="2" height="1" fill="#222034" />
<rect x="8" y="7" width="1" height="4" fill="#3F3F74" />
<rect x="9" y="7" width="1" height="5" fill="#222034" />
<rect x="22" y="7" width="1" height="5" fill="#222034" />
<rect x="23" y="7" width="1" height="4" fill="#3F3F74" />
<rect x="25" y="7" width="2" height="1" fill="#222034" />
<rect x="3" y="8" width="2" height="1" fill="#222034" />
<rect x="5" y="8" width="3" height="4" fill="#3F3F74" />
<rect x="12" y="8" width="1" height="4" fill="#222034" />
<rect x="19" y="8" width="1" height="4" fill="#222034" />
<rect x="24" y="8" width="3" height="4" fill="#3F3F74" />
<rect x="27" y="8" width="2" height="1" fill="#222034" />
<rect x="2" y="9" width="1" height="1" fill="#222034" />
<rect x="3" y="9" width="2" height="5" fill="#3F3F74" />
<rect x="10" y="9" width="1" height="4" fill="#222034" />
<rect x="15" y="9" width="2" height="16" fill="#222034" />
<rect x="21" y="9" width="1" height="4" fill="#222034" />
<rect x="27" y="9" width="2" height="5" fill="#3F3F74" />
<rect x="29" y="9" width="1" height="1" fill="#222034" />
<rect x="1" y="10" width="1" height="2" fill="#222034" />
<rect x="2" y="10" width="1" height="5" fill="#3F3F74" />
<rect x="14" y="10" width="1" height="2" fill="#AC3232" />
<rect x="17" y="10" width="1" height="2" fill="#AC3232" />
<rect x="29" y="10" width="1" height="5" fill="#3F3F74" />
<rect x="30" y="10" width="1" height="2" fill="#222034" />
<rect x="8" y="11" width="1" height="2" fill="#222034" />
<rect x="23" y="11" width="1" height="2" fill="#222034" />
<rect x="0" y="12" width="1" height="1" fill="#222034" />
<rect x="1" y="12" width="1" height="4" fill="#3F3F74" />
<rect x="5" y="12" width="2" height="1" fill="#3F3F74" />
<rect x="7" y="12" width="1" height="2" fill="#222034" />
<rect x="9" y="12" width="1" height="4" fill="#3F3F74" />
<rect x="11" y="12" width="1" height="4" fill="#222034" />
<rect x="14" y="12" width="1" height="11" fill="#222034" />
<rect x="17" y="12" width="1" height="11" fill="#222034" />
<rect x="20" y="12" width="1" height="4" fill="#222034" />
<rect x="22" y="12" width="1" height="4" fill="#3F3F74" />
<rect x="24" y="12" width="1" height="2" fill="#222034" />
<rect x="25" y="12" width="2" height="1" fill="#3F3F74" />
<rect x="30" y="12" width="1" height="4" fill="#3F3F74" />
<rect x="31" y="12" width="1" height="1" fill="#222034" />
<rect x="0" y="13" width="1" height="2" fill="#3F3F74" />
<rect x="5" y="13" width="1" height="1" fill="#3F3F74" />
<rect x="6" y="13" width="1" height="2" fill="#222034" />
<rect x="8" y="13" width="1" height="3" fill="#3F3F74" />
<rect x="10" y="13" width="1" height="3" fill="#3F3F74" />
<rect x="21" y="13" width="1" height="3" fill="#3F3F74" />
<rect x="23" y="13" width="1" height="3" fill="#3F3F74" />
<rect x="25" y="13" width="1" height="2" fill="#222034" />
<rect x="26" y="13" width="1" height="1" fill="#3F3F74" />
<rect x="31" y="13" width="1" height="2" fill="#3F3F74" />
<rect x="7" y="14" width="1" height="3" fill="#3F3F74" />
<rect x="12" y="14" width="1" height="1" fill="#222034" />
<rect x="19" y="14" width="1" height="1" fill="#222034" />
<rect x="24" y="14" width="1" height="3" fill="#3F3F74" />
<rect x="6" y="15" width="1" height="1" fill="#3F3F74" />
<rect x="12" y="15" width="1" height="4" fill="#3F3F74" />
<rect x="13" y="15" width="1" height="6" fill="#222034" />
<rect x="18" y="15" width="1" height="6" fill="#222034" />
<rect x="19" y="15" width="1" height="4" fill="#3F3F74" />
<rect x="25" y="15" width="1" height="1" fill="#3F3F74" />
<rect x="5" y="16" width="1" height="1" fill="#3F3F74" />
<rect x="10" y="16" width="1" height="2" fill="#222034" />
<rect x="11" y="16" width="1" height="3" fill="#3F3F74" />
<rect x="20" y="16" width="1" height="3" fill="#3F3F74" />
<rect x="21" y="16" width="1" height="2" fill="#222034" />
<rect x="26" y="16" width="1" height="1" fill="#3F3F74" />
<rect x="9" y="18" width="1" height="1" fill="#222034" />
<rect x="22" y="18" width="1" height="1" fill="#222034" />
</svg>