<?xml version="1.0" encoding="UTF-8" ?>
<svg version="1.1" width="48" height="48" xmlns="http://www.w3.org/2000/svg" shape-rendering="crispEdges">
<rect x="17" y="11" width="3" height="1" fill="#000000" />
<rect x="14" y="12" width="3" height="1" fill="#000000" />
<rect x="17" y="12" width="3" height="1" fill="#464646" />
<rect x="20" y="12" width="2" height="1" fill="#000000" />
<rect x="13" y="13" width="1" height="2" fill="#000000" />
<rect x="14" y="13" width="3" height="1" fill="#464646" />
<rect x="17" y="13" width="3" height="1" fill="#1F1F1F" />
<rect x="20" y="13" width="1" height="2" fill="#2C2C2C" />
<rect x="21" y="13" width="1" height="1" fill="#464646" />
<rect x="22" y="13" width="1" height="3" fill="#000000" />
<rect x="14" y="14" width="5" height="1" fill="#000000" />
<rect x="19" y="14" width="1" height="1" fill="#1F1F1F" />
<rect x="21" y="14" width="1" height="1" fill="#2C2C2C" />
<rect x="24" y="14" width="7" height="1" fill="#000000" />
<rect x="33" y="14" width="3" height="1" fill="#000000" />
<rect x="12" y="15" width="1" height="1" fill="#000000" />
<rect x="13" y="15" width="1" height="1" fill="#464646" />
<rect x="14" y="15" width="3" height="2" fill="#1F1F1F" />
<rect x="17" y="15" width="1" height="1" fill="#000000" />
<rect x="19" y="15" width="1" height="3" fill="#000000" />
<rect x="20" y="15" width="2" height="1" fill="#1F1F1F" />
<rect x="23" y="15" width="1" height="1" fill="#000000" />
<rect x="24" y="15" width="2" height="1" fill="#4B692F" />
<rect x="26" y="15" width="3" height="1" fill="#99E550" />
<rect x="29" y="15" width="2" height="1" fill="#464646" />
<rect x="31" y="15" width="2" height="1" fill="#000000" />
<rect x="33" y="15" width="3" height="1" fill="#464646" />
<rect x="36" y="15" width="3" height="1" fill="#000000" />
<rect x="11" y="16" width="1" height="2" fill="#000000" />
<rect x="12" y="16" width="2" height="1" fill="#1F1F1F" />
<rect x="17" y="16" width="1" height="2" fill="#1F1F1F" />
<rect x="18" y="16" width="1" height="1" fill="#000000" />
<rect x="20" y="16" width="1" height="1" fill="#000000" />
<rect x="21" y="16" width="2" height="1" fill="#2C2C2C" />
<rect x="23" y="16" width="5" height="1" fill="#464646" />
<rect x="28" y="16" width="2" height="1" fill="#99E550" />
<rect x="30" y="16" width="2" height="1" fill="#464646" />
<rect x="32" y="16" width="1" height="2" fill="#000000" />
<rect x="33" y="16" width="3" height="2" fill="#1F1F1F" />
<rect x="36" y="16" width="2" height="1" fill="#464646" />
<rect x="38" y="16" width="1" height="2" fill="#2C2C2C" />
<rect x="39" y="16" width="1" height="1" fill="#000000" />
<rect x="10" y="17" width="1" height="1" fill="#000000" />
<rect x="12" y="17" width="1" height="1" fill="#000000" />
<rect x="13" y="17" width="1" height="1" fill="#1F1F1F" />
<rect x="14" y="17" width="2" height="1" fill="#000000" />
<rect x="16" y="17" width="1" height="1" fill="#1F1F1F" />
<rect x="18" y="17" width="1" height="1" fill="#1F1F1F" />
<rect x="20" y="17" width="1" height="1" fill="#2C2C2C" />
<rect x="21" y="17" width="4" height="2" fill="#99E550" />
<rect x="25" y="17" width="4" height="1" fill="#464646" />
<rect x="29" y="17" width="2" height="1" fill="#99E550" />
<rect x="31" y="17" width="1" height="1" fill="#464646" />
<rect x="36" y="17" width="1" height="1" fill="#1F1F1F" />
<rect x="37" y="17" width="1" height="1" fill="#464646" />
<rect x="39" y="17" width="1" height="2" fill="#2C2C2C" />
<rect x="40" y="17" width="1" height="1" fill="#000000" />
<rect x="8" y="18" width="2" height="1" fill="#000000" />
<rect x="10" y="18" width="3" height="1" fill="#464646" />
<rect x="13" y="18" width="1" height="1" fill="#000000" />
<rect x="16" y="18" width="2" height="1" fill="#000000" />
<rect x="18" y="18" width="2" height="1" fill="#4B692F" />
<rect x="20" y="18" width="1" height="1" fill="#99E550" />
<rect x="25" y="18" width="2" height="2" fill="#99E550" />
<rect x="27" y="18" width="3" height="2" fill="#464646" />
<rect x="30" y="18" width="2" height="1" fill="#99E550" />
<rect x="32" y="18" width="1" height="1" fill="#2C2C2C" />
<rect x="33" y="18" width="5" height="1" fill="#000000" />
<rect x="38" y="18" width="1" height="1" fill="#1F1F1F" />
<rect x="40" y="18" width="1" height="1" fill="#464646" />
<rect x="41" y="18" width="1" height="5" fill="#000000" />
<rect x="7" y="19" width="1" height="2" fill="#000000" />
<rect x="8" y="19" width="2" height="1" fill="#464646" />
<rect x="10" y="19" width="4" height="1" fill="#2C2C2C" />
<rect x="14" y="19" width="1" height="3" fill="#000000" />
<rect x="16" y="19" width="1" height="1" fill="#000000" />
<rect x="17" y="19" width="2" height="1" fill="#4B692F" />
<rect x="19" y="19" width="6" height="5" fill="#464646" />
<rect x="30" y="19" width="1" height="2" fill="#464646" />
<rect x="31" y="19" width="1" height="1" fill="#99E550" />
<rect x="32" y="19" width="2" height="1" fill="#000000" />
<rect x="34" y="19" width="2" height="1" fill="#464646" />
<rect x="36" y="19" width="1" height="1" fill="#000000" />
<rect x="38" y="19" width="1" height="3" fill="#000000" />
<rect x="39" y="19" width="1" height="3" fill="#1F1F1F" />
<rect x="40" y="19" width="1" height="1" fill="#2C2C2C" />
<rect x="8" y="20" width="1" height="1" fill="#464646" />
<rect x="9" y="20" width="1" height="1" fill="#2C2C2C" />
<rect x="10" y="20" width="3" height="1" fill="#1F1F1F" />
<rect x="13" y="20" width="1" height="1" fill="#2C2C2C" />
<rect x="15" y="20" width="1" height="1" fill="#000000" />
<rect x="16" y="20" width="1" height="1" fill="#1F1F1F" />
<rect x="17" y="20" width="2" height="6" fill="#2C2C2C" />
<rect x="25" y="20" width="1" height="5" fill="#464646" />
<rect x="26" y="20" width="2" height="1" fill="#99E550" />
<rect x="28" y="20" width="2" height="1" fill="#464646" />
<rect x="31" y="20" width="1" height="1" fill="#4B692F" />
<rect x="32" y="20" width="1" height="1" fill="#000000" />
<rect x="33" y="20" width="2" height="1" fill="#2C2C2C" />
<rect x="35" y="20" width="2" height="1" fill="#464646" />
<rect x="37" y="20" width="1" height="1" fill="#000000" />
<rect x="40" y="20" width="1" height="4" fill="#1F1F1F" />
<rect x="5" y="21" width="2" height="1" fill="#000000" />
<rect x="7" y="21" width="1" height="1" fill="#2C2C2C" />
<rect x="8" y="21" width="2" height="1" fill="#1F1F1F" />
<rect x="10" y="21" width="1" height="1" fill="#000000" />
<rect x="11" y="21" width="3" height="1" fill="#1F1F1F" />
<rect x="15" y="21" width="1" height="3" fill="#1F1F1F" />
<rect x="16" y="21" width="1" height="3" fill="#2C2C2C" />
<rect x="26" y="21" width="1" height="4" fill="#464646" />
<rect x="27" y="21" width="2" height="1" fill="#99E550" />
<rect x="29" y="21" width="1" height="1" fill="#4B692F" />
<rect x="30" y="21" width="2" height="1" fill="#000000" />
<rect x="32" y="21" width="1" height="1" fill="#2C2C2C" />
<rect x="33" y="21" width="3" height="2" fill="#1F1F1F" />
<rect x="36" y="21" width="2" height="1" fill="#2C2C2C" />
<rect x="4" y="22" width="1" height="2" fill="#000000" />
<rect x="5" y="22" width="1" height="1" fill="#464646" />
<rect x="6" y="22" width="1" height="2" fill="#2C2C2C" />
<rect x="7" y="22" width="2" height="1" fill="#1F1F1F" />
<rect x="9" y="22" width="1" height="1" fill="#000000" />
<rect x="11" y="22" width="1" height="3" fill="#000000" />
<rect x="12" y="22" width="3" height="2" fill="#1F1F1F" />
<rect x="27" y="22" width="1" height="1" fill="#99E550" />
<rect x="28" y="22" width="1" height="2" fill="#4B692F" />
<rect x="29" y="22" width="1" height="3" fill="#000000" />
<rect x="30" y="22" width="3" height="2" fill="#1F1F1F" />
<rect x="36" y="22" width="2" height="3" fill="#1F1F1F" />
<rect x="38" y="22" width="1" height="1" fill="#464646" />
<rect x="39" y="22" width="1" height="2" fill="#000000" />
<rect x="5" y="23" width="1" height="1" fill="#2C2C2C" />
<rect x="7" y="23" width="1" height="1" fill="#1F1F1F" />
<rect x="8" y="23" width="1" height="1" fill="#000000" />
<rect x="27" y="23" width="1" height="1" fill="#464646" />
<rect x="33" y="23" width="2" height="1" fill="#1F1F1F" />
<rect x="35" y="23" width="1" height="1" fill="#000000" />
<rect x="38" y="23" width="1" height="4" fill="#1F1F1F" />
<rect x="41" y="23" width="1" height="2" fill="#1F1F1F" />
<rect x="42" y="23" width="3" height="1" fill="#000000" />
<rect x="2" y="24" width="2" height="1" fill="#000000" />
<rect x="4" y="24" width="1" height="1" fill="#2C2C2C" />
<rect x="5" y="24" width="2" height="1" fill="#1F1F1F" />
<rect x="7" y="24" width="1" height="8" fill="#000000" />
<rect x="10" y="24" width="1" height="1" fill="#000000" />
<rect x="12" y="24" width="4" height="1" fill="#000000" />
<rect x="16" y="24" width="1" height="1" fill="#1F1F1F" />
<rect x="19" y="24" width="3" height="2" fill="#2C2C2C" />
<rect x="22" y="24" width="3" height="1" fill="#464646" />
<rect x="27" y="24" width="2" height="1" fill="#2C2C2C" />
<rect x="30" y="24" width="2" height="2" fill="#000000" />
<rect x="32" y="24" width="2" height="1" fill="#1F1F1F" />
<rect x="34" y="24" width="1" height="1" fill="#000000" />
<rect x="39" y="24" width="1" height="1" fill="#2C2C2C" />
<rect x="40" y="24" width="1" height="1" fill="#000000" />
<rect x="42" y="24" width="1" height="2" fill="#1F1F1F" />
<rect x="43" y="24" width="2" height="1" fill="#464646" />
<rect x="45" y="24" width="1" height="2" fill="#000000" />
<rect x="1" y="25" width="1" height="2" fill="#000000" />
<rect x="2" y="25" width="3" height="1" fill="#1F1F1F" />
<rect x="5" y="25" width="2" height="1" fill="#000000" />
<rect x="8" y="25" width="2" height="1" fill="#000000" />
<rect x="10" y="25" width="1" height="1" fill="#2C2C2C" />
<rect x="11" y="25" width="5" height="1" fill="#464646" />
<rect x="16" y="25" width="1" height="1" fill="#000000" />
<rect x="22" y="25" width="4" height="1" fill="#2C2C2C" />
<rect x="26" y="25" width="3" height="1" fill="#000000" />
<rect x="29" y="25" width="1" height="1" fill="#464646" />
<rect x="32" y="25" width="2" height="1" fill="#000000" />
<rect x="36" y="25" width="1" height="1" fill="#000000" />
<rect x="37" y="25" width="1" height="1" fill="#1F1F1F" />
<rect x="39" y="25" width="1" height="3" fill="#1F1F1F" />
<rect x="40" y="25" width="1" height="1" fill="#2C2C2C" />
<rect x="41" y="25" width="1" height="2" fill="#000000" />
<rect x="43" y="25" width="1" height="1" fill="#1F1F1F" />
<rect x="44" y="25" width="1" height="2" fill="#000000" />
<rect x="2" y="26" width="2" height="1" fill="#1F1F1F" />
<rect x="4" y="26" width="1" height="1" fill="#000000" />
<rect x="8" y="26" width="1" height="1" fill="#3F5C24" />
<rect x="9" y="26" width="2" height="1" fill="#1F1F1F" />
<rect x="11" y="26" width="5" height="1" fill="#2C2C2C" />
<rect x="16" y="26" width="1" height="1" fill="#3F5C24" />
<rect x="17" y="26" width="2" height="2" fill="#000000" />
<rect x="19" y="26" width="6" height="2" fill="#1F1F1F" />
<rect x="25" y="26" width="1" height="2" fill="#000000" />
<rect x="26" y="26" width="4" height="1" fill="#2C2C2C" />
<rect x="30" y="26" width="2" height="1" fill="#464646" />
<rect x="32" y="26" width="1" height="2" fill="#000000" />
<rect x="37" y="26" width="1" height="1" fill="#000000" />
<rect x="40" y="26" width="1" height="4" fill="#1F1F1F" />
<rect x="42" y="26" width="2" height="1" fill="#000000" />
<rect x="2" y="27" width="2" height="1" fill="#000000" />
<rect x="8" y="27" width="1" height="1" fill="#99E550" />
<rect x="9" y="27" width="1" height="1" fill="#3F5C24" />
<rect x="10" y="27" width="1" height="2" fill="#1F1F1F" />
<rect x="11" y="27" width="4" height="1" fill="#2C2C2C" />
<rect x="15" y="27" width="1" height="1" fill="#3F5C24" />
<rect x="16" y="27" width="1" height="1" fill="#99E550" />
<rect x="26" y="27" width="1" height="1" fill="#2C2C2C" />
<rect x="27" y="27" width="4" height="1" fill="#1F1F1F" />
<rect x="31" y="27" width="1" height="1" fill="#464646" />
<rect x="38" y="27" width="1" height="1" fill="#000000" />
<rect x="41" y="27" width="1" height="4" fill="#1F1F1F" />
<rect x="42" y="27" width="1" height="2" fill="#000000" />
<rect x="8" y="28" width="2" height="1" fill="#1F1F1F" />
<rect x="11" y="28" width="12" height="1" fill="#1F1F1F" />
<rect x="23" y="28" width="2" height="1" fill="#000000" />
<rect x="25" y="28" width="4" height="1" fill="#1F1F1F" />
<rect x="29" y="28" width="1" height="1" fill="#000000" />
<rect x="30" y="28" width="2" height="1" fill="#1F1F1F" />
<rect x="32" y="28" width="1" height="2" fill="#2C2C2C" />
<rect x="33" y="28" width="1" height="3" fill="#000000" />
<rect x="39" y="28" width="1" height="2" fill="#000000" />
<rect x="43" y="28" width="2" height="1" fill="#000000" />
<rect x="6" y="29" width="1" height="1" fill="#000000" />
<rect x="8" y="29" width="1" height="1" fill="#3F5C24" />
<rect x="9" y="29" width="2" height="1" fill="#99E550" />
<rect x="11" y="29" width="3" height="5" fill="#1F1F1F" />
<rect x="14" y="29" width="2" height="1" fill="#99E550" />
<rect x="16" y="29" width="1" height="1" fill="#3F5C24" />
<rect x="17" y="29" width="5" height="2" fill="#1F1F1F" />
<rect x="22" y="29" width="1" height="1" fill="#000000" />
<rect x="23" y="29" width="5" height="1" fill="#1F1F1F" />
<rect x="28" y="29" width="1" height="2" fill="#000000" />
<rect x="30" y="29" width="1" height="3" fill="#000000" />
<rect x="31" y="29" width="1" height="2" fill="#1F1F1F" />
<rect x="34" y="29" width="1" height="2" fill="#000000" />
<rect x="42" y="29" width="3" height="1" fill="#464646" />
<rect x="45" y="29" width="1" height="3" fill="#000000" />
<rect x="5" y="30" width="1" height="1" fill="#000000" />
<rect x="6" y="30" width="1" height="4" fill="#1F1F1F" />
<rect x="8" y="30" width="1" height="2" fill="#4B692F" />
<rect x="9" y="30" width="1" height="2" fill="#3F5C24" />
<rect x="10" y="30" width="1" height="1" fill="#99E550" />
<rect x="14" y="30" width="1" height="1" fill="#99E550" />
<rect x="15" y="30" width="1" height="2" fill="#3F5C24" />
<rect x="16" y="30" width="1" height="2" fill="#4B692F" />
<rect x="22" y="30" width="1" height="2" fill="#2C2C2C" />
<rect x="23" y="30" width="2" height="1" fill="#000000" />
<rect x="25" y="30" width="2" height="1" fill="#1F1F1F" />
<rect x="27" y="30" width="1" height="1" fill="#000000" />
<rect x="32" y="30" width="1" height="2" fill="#1F1F1F" />
<rect x="40" y="30" width="1" height="1" fill="#000000" />
<rect x="42" y="30" width="3" height="1" fill="#2C2C2C" />
<rect x="4" y="31" width="1" height="1" fill="#000000" />
<rect x="5" y="31" width="1" height="4" fill="#1F1F1F" />
<rect x="10" y="31" width="1" height="1" fill="#3F5C24" />
<rect x="14" y="31" width="1" height="1" fill="#3F5C24" />
<rect x="17" y="31" width="2" height="1" fill="#1F1F1F" />
<rect x="19" y="31" width="1" height="1" fill="#000000" />
<rect x="20" y="31" width="2" height="1" fill="#1F1F1F" />
<rect x="23" y="31" width="1" height="1" fill="#464646" />
<rect x="24" y="31" width="3" height="1" fill="#000000" />
<rect x="31" y="31" width="1" height="1" fill="#000000" />
<rect x="33" y="31" width="1" height="1" fill="#2C2C2C" />
<rect x="34" y="31" width="1" height="1" fill="#464646" />
<rect x="35" y="31" width="1" height="3" fill="#000000" />
<rect x="41" y="31" width="4" height="1" fill="#000000" />
<rect x="3" y="32" width="1" height="2" fill="#000000" />
<rect x="4" y="32" width="1" height="5" fill="#1F1F1F" />
<rect x="7" y="32" width="1" height="1" fill="#1F1F1F" />
<rect x="8" y="32" width="1" height="2" fill="#FFFFFF" />
<rect x="9" y="32" width="2" height="1" fill="#1F1F1F" />
<rect x="14" y="32" width="2" height="1" fill="#1F1F1F" />
<rect x="16" y="32" width="1" height="2" fill="#FFFFFF" />
<rect x="17" y="32" width="2" height="2" fill="#000000" />
<rect x="20" y="32" width="1" height="2" fill="#000000" />
<rect x="21" y="32" width="2" height="2" fill="#1F1F1F" />
<rect x="23" y="32" width="1" height="1" fill="#2C2C2C" />
<rect x="24" y="32" width="1" height="1" fill="#464646" />
<rect x="25" y="32" width="1" height="2" fill="#000000" />
<rect x="32" y="32" width="1" height="2" fill="#000000" />
<rect x="33" y="32" width="1" height="2" fill="#1F1F1F" />
<rect x="34" y="32" width="1" height="1" fill="#2C2C2C" />
<rect x="7" y="33" width="1" height="1" fill="#000000" />
<rect x="9" y="33" width="1" height="2" fill="#FFFFFF" />
<rect x="10" y="33" width="1" height="1" fill="#1F1F1F" />
<rect x="14" y="33" width="1" height="1" fill="#1F1F1F" />
<rect x="15" y="33" width="1" height="2" fill="#FFFFFF" />
<rect x="23" y="33" width="1" height="5" fill="#1F1F1F" />
<rect x="24" y="33" width="1" height="1" fill="#2C2C2C" />
<rect x="34" y="33" width="1" height="3" fill="#1F1F1F" />
<rect x="2" y="34" width="1" height="3" fill="#000000" />
<rect x="3" y="34" width="1" height="3" fill="#1F1F1F" />
<rect x="6" y="34" width="1" height="1" fill="#000000" />
<rect x="8" y="34" width="1" height="1" fill="#9BADB7" />
<rect x="10" y="34" width="1" height="2" fill="#FFFFFF" />
<rect x="11" y="34" width="3" height="1" fill="#000000" />
<rect x="14" y="34" width="1" height="2" fill="#FFFFFF" />
<rect x="16" y="34" width="1" height="1" fill="#9BADB7" />
<rect x="21" y="34" width="1" height="1" fill="#000000" />
<rect x="22" y="34" width="1" height="1" fill="#1F1F1F" />
<rect x="24" y="34" width="1" height="4" fill="#1F1F1F" />
<rect x="25" y="34" width="1" height="1" fill="#2C2C2C" />
<rect x="26" y="34" width="1" height="3" fill="#000000" />
<rect x="33" y="34" width="1" height="2" fill="#000000" />
<rect x="35" y="34" width="1" height="1" fill="#2C2C2C" />
<rect x="36" y="34" width="3" height="1" fill="#000000" />
<rect x="5" y="35" width="1" height="2" fill="#000000" />
<rect x="9" y="35" width="1" height="1" fill="#9BADB7" />
<rect x="15" y="35" width="1" height="1" fill="#9BADB7" />
<rect x="22" y="35" width="1" height="2" fill="#000000" />
<rect x="25" y="35" width="1" height="2" fill="#1F1F1F" />
<rect x="35" y="35" width="1" height="2" fill="#1F1F1F" />
<rect x="36" y="35" width="3" height="1" fill="#464646" />
<rect x="39" y="35" width="1" height="3" fill="#000000" />
<rect x="10" y="36" width="1" height="1" fill="#9BADB7" />
<rect x="14" y="36" width="1" height="1" fill="#9BADB7" />
<rect x="34" y="36" width="1" height="1" fill="#000000" />
<rect x="36" y="36" width="3" height="1" fill="#1F1F1F" />
<rect x="3" y="37" width="2" height="1" fill="#000000" />
<rect x="20" y="37" width="2" height="1" fill="#000000" />
<rect x="22" y="37" width="1" height="3" fill="#1F1F1F" />
<rect x="25" y="37" width="1" height="1" fill="#000000" />
<rect x="35" y="37" width="4" height="1" fill="#000000" />
<rect x="19" y="38" width="1" height="2" fill="#000000" />
<rect x="20" y="38" width="2" height="3" fill="#1F1F1F" />
<rect x="23" y="38" width="2" height="1" fill="#000000" />
<rect x="23" y="39" width="1" height="1" fill="#000000" />
<rect x="16" y="40" width="3" height="1" fill="#000000" />
<rect x="19" y="40" width="1" height="1" fill="#1F1F1F" />
<rect x="22" y="40" width="1" height="1" fill="#000000" />
<rect x="14" y="41" width="2" height="1" fill="#000000" />
<rect x="16" y="41" width="4" height="2" fill="#2C2C2C" />
<rect x="20" y="41" width="2" height="1" fill="#000000" />
<rect x="14" y="42" width="1" height="1" fill="#000000" />
<rect x="15" y="42" width="1" height="1" fill="#1F1F1F" />
<rect x="20" y="42" width="1" height="1" fill="#000000" />
<rect x="15" y="43" width="5" height="1" fill="#000000" />
</svg>