<?xml version="1.0" encoding="UTF-8" ?>
<svg version="1.1" width="32" height="32" xmlns="http://www.w3.org/2000/svg" shape-rendering="crispEdges">
<rect x="11" y="6" width="3" height="1" fill="#696A6A" />
<rect x="10" y="7" width="1" height="3" fill="#696A6A" />
<rect x="11" y="7" width="2" height="1" fill="#7B4D6D" />
<rect x="13" y="7" width="3" height="1" fill="#696A6A" />
<rect x="11" y="8" width="1" height="1" fill="#7B4D6D" />
<rect x="12" y="8" width="1" height="1" fill="#696A6A" />
<rect x="13" y="8" width="3" height="1" fill="#7B4D6D" />
<rect x="16" y="8" width="1" height="2" fill="#696A6A" />
<rect x="9" y="9" width="1" height="1" fill="#696A6A" />
<rect x="11" y="9" width="1" height="1" fill="#696A6A" />
<rect x="12" y="9" width="1" height="1" fill="#7B4D6D" />
<rect x="13" y="9" width="2" height="1" fill="#9A5E88" />
<rect x="15" y="9" width="1" height="1" fill="#7B4D6D" />
<rect x="8" y="10" width="1" height="1" fill="#696A6A" />
<rect x="9" y="10" width="4" height="1" fill="#808080" />
<rect x="13" y="10" width="1" height="1" fill="#9A5E88" />
<rect x="14" y="10" width="1" height="1" fill="#7B4D6D" />
<rect x="15" y="10" width="1" height="1" fill="#696A6A" />
<rect x="7" y="11" width="1" height="2" fill="#696A6A" />
<rect x="8" y="11" width="1" height="5" fill="#808080" />
<rect x="9" y="11" width="1" height="2" fill="#AC3232" />
<rect x="10" y="11" width="4" height="4" fill="#808080" />
<rect x="14" y="11" width="1" height="1" fill="#696A6A" />
<rect x="14" y="12" width="1" height="1" fill="#9A9A9A" />
<rect x="15" y="12" width="2" height="1" fill="#696A6A" />
<rect x="6" y="13" width="1" height="2" fill="#696A6A" />
<rect x="7" y="13" width="1" height="3" fill="#808080" />
<rect x="9" y="13" width="1" height="2" fill="#808080" />
<rect x="14" y="13" width="2" height="8" fill="#808080" />
<rect x="16" y="13" width="1" height="1" fill="#9A9A9A" />
<rect x="17" y="13" width="2" height="1" fill="#696A6A" />
<rect x="4" y="14" width="2" height="1" fill="#9A5E88" />
<rect x="16" y="14" width="1" height="7" fill="#808080" />
<rect x="17" y="14" width="2" height="1" fill="#9A9A9A" />
<rect x="19" y="14" width="2" height="1" fill="#696A6A" />
<rect x="4" y="15" width="1" height="1" fill="#9A5E88" />
<rect x="5" y="15" width="1" height="2" fill="#696A6A" />
<rect x="6" y="15" width="1" height="1" fill="#808080" />
<rect x="9" y="15" width="3" height="1" fill="#696A6A" />
<rect x="12" y="15" width="2" height="4" fill="#808080" />
<rect x="17" y="15" width="2" height="5" fill="#808080" />
<rect x="19" y="15" width="2" height="1" fill="#9A9A9A" />
<rect x="21" y="15" width="2" height="1" fill="#696A6A" />
<rect x="6" y="16" width="3" height="1" fill="#696A6A" />
<rect x="11" y="16" width="1" height="3" fill="#696A6A" />
<rect x="19" y="16" width="2" height="4" fill="#808080" />
<rect x="21" y="16" width="1" height="1" fill="#9A9A9A" />
<rect x="22" y="16" width="1" height="8" fill="#808080" />
<rect x="23" y="16" width="1" height="2" fill="#696A6A" />
<rect x="21" y="17" width="1" height="7" fill="#808080" />
<rect x="10" y="18" width="1" height="1" fill="#696A6A" />
<rect x="23" y="18" width="1" height="5" fill="#808080" />
<rect x="24" y="18" width="1" height="3" fill="#696A6A" />
<rect x="9" y="19" width="1" height="1" fill="#696A6A" />
<rect x="10" y="19" width="2" height="1" fill="#808080" />
<rect x="12" y="19" width="1" height="1" fill="#696A6A" />
<rect x="13" y="19" width="1" height="1" fill="#808080" />
<rect x="8" y="20" width="2" height="1" fill="#7B4D6D" />
<rect x="10" y="20" width="2" height="1" fill="#696A6A" />
<rect x="13" y="20" width="1" height="1" fill="#696A6A" />
<rect x="17" y="20" width="3" height="1" fill="#696A6A" />
<rect x="20" y="20" width="1" height="1" fill="#808080" />
<rect x="8" y="21" width="1" height="1" fill="#9A5E88" />
<rect x="14" y="21" width="1" height="1" fill="#696A6A" />
<rect x="15" y="21" width="1" height="1" fill="#808080" />
<rect x="16" y="21" width="1" height="1" fill="#696A6A" />
<rect x="17" y="21" width="3" height="1" fill="#9A9A9A" />
<rect x="20" y="21" width="1" height="1" fill="#696A6A" />
<rect x="24" y="21" width="1" height="1" fill="#808080" />
<rect x="25" y="21" width="1" height="2" fill="#696A6A" />
<rect x="15" y="22" width="1" height="1" fill="#696A6A" />
<rect x="16" y="22" width="1" height="1" fill="#9A9A9A" />
<rect x="17" y="22" width="4" height="2" fill="#808080" />
<rect x="24" y="22" width="1" height="2" fill="#696A6A" />
<rect x="26" y="22" width="1" height="5" fill="#7B4D6D" />
<rect x="14" y="23" width="1" height="2" fill="#7B4D6D" />
<rect x="15" y="23" width="2" height="1" fill="#808080" />
<rect x="23" y="23" width="1" height="1" fill="#696A6A" />
<rect x="25" y="23" width="1" height="1" fill="#7B4D6D" />
<rect x="27" y="23" width="1" height="3" fill="#7B4D6D" />
<rect x="13" y="24" width="1" height="1" fill="#9A5E88" />
<rect x="15" y="24" width="1" height="1" fill="#7B4D6D" />
<rect x="16" y="24" width="7" height="1" fill="#696A6A" />
<rect x="8" y="25" width="2" height="1" fill="#9A5E88" />
<rect x="25" y="25" width="1" height="1" fill="#9A5E88" />
<rect x="8" y="26" width="1" height="1" fill="#7B4D6D" />
<rect x="9" y="26" width="2" height="1" fill="#9A5E88" />
<rect x="24" y="26" width="1" height="1" fill="#9A5E88" />
<rect x="25" y="26" width="1" height="2" fill="#7B4D6D" />
<rect x="9" y="27" width="2" height="1" fill="#7B4D6D" />
<rect x="11" y="27" width="1" height="1" fill="#9A5E88" />
<rect x="23" y="27" width="1" height="1" fill="#9A5E88" />
<rect x="24" y="27" width="1" height="2" fill="#7B4D6D" />
<rect x="10" y="28" width="2" height="1" fill="#7B4D6D" />
<rect x="12" y="28" width="11" height="1" fill="#9A5E88" />
<rect x="23" y="28" width="1" height="2" fill="#7B4D6D" />
<rect x="11" y="29" width="12" height="1" fill="#7B4D6D" />
</svg>