<?xml version="1.0" encoding="UTF-8" ?>
<svg version="1.1" width="32" height="32" xmlns="http://www.w3.org/2000/svg" shape-rendering="crispEdges">
<rect x="8" y="8" width="17" height="1" fill="#4B692F" />
<rect x="5" y="9" width="3" height="1" fill="#4B692F" />
<rect x="8" y="9" width="3" height="1" fill="#6ABE30" />
<rect x="11" y="9" width="8" height="5" fill="#99E550" />
<rect x="19" y="9" width="1" height="1" fill="#FFFFFF" />
<rect x="20" y="9" width="5" height="1" fill="#6ABE30" />
<rect x="25" y="9" width="2" height="1" fill="#4B692F" />
<rect x="4" y="10" width="1" height="2" fill="#4B692F" />
<rect x="5" y="10" width="5" height="1" fill="#6ABE30" />
<rect x="10" y="10" width="1" height="4" fill="#99E550" />
<rect x="19" y="10" width="2" height="4" fill="#99E550" />
<rect x="21" y="10" width="2" height="1" fill="#FFFFFF" />
<rect x="23" y="10" width="2" height="1" fill="#99E550" />
<rect x="25" y="10" width="2" height="1" fill="#6ABE30" />
<rect x="27" y="10" width="1" height="2" fill="#4B692F" />
<rect x="5" y="11" width="4" height="5" fill="#6ABE30" />
<rect x="9" y="11" width="1" height="3" fill="#99E550" />
<rect x="21" y="11" width="2" height="5" fill="#99E550" />
<rect x="23" y="11" width="2" height="1" fill="#FFFFFF" />
<rect x="25" y="11" width="1" height="4" fill="#99E550" />
<rect x="26" y="11" width="1" height="1" fill="#6ABE30" />
<rect x="3" y="12" width="1" height="4" fill="#4B692F" />
<rect x="4" y="12" width="1" height="2" fill="#6ABE30" />
<rect x="23" y="12" width="2" height="3" fill="#99E550" />
<rect x="26" y="12" width="1" height="2" fill="#99E550" />
<rect x="27" y="12" width="1" height="9" fill="#6ABE30" />
<rect x="28" y="12" width="1" height="4" fill="#4B692F" />
<rect x="4" y="14" width="1" height="7" fill="#57A322" />
<rect x="9" y="14" width="1" height="3" fill="#6ABE30" />
<rect x="10" y="14" width="2" height="1" fill="#4B692F" />
<rect x="12" y="14" width="7" height="2" fill="#99E550" />
<rect x="19" y="14" width="2" height="1" fill="#4B692F" />
<rect x="26" y="14" width="1" height="8" fill="#6ABE30" />
<rect x="10" y="15" width="1" height="3" fill="#6ABE30" />
<rect x="11" y="15" width="1" height="2" fill="#4B692F" />
<rect x="19" y="15" width="1" height="2" fill="#4B692F" />
<rect x="20" y="15" width="1" height="1" fill="#99E550" />
<rect x="23" y="15" width="3" height="7" fill="#6ABE30" />
<rect x="2" y="16" width="1" height="4" fill="#4B692F" />
<rect x="3" y="16" width="1" height="4" fill="#57A322" />
<rect x="5" y="16" width="3" height="4" fill="#57A322" />
<rect x="8" y="16" width="1" height="1" fill="#6ABE30" />
<rect x="12" y="16" width="1" height="3" fill="#6ABE30" />
<rect x="13" y="16" width="1" height="1" fill="#4B692F" />
<rect x="14" y="16" width="3" height="1" fill="#6ABE30" />
<rect x="17" y="16" width="1" height="1" fill="#4B692F" />
<rect x="18" y="16" width="1" height="5" fill="#6ABE30" />
<rect x="20" y="16" width="3" height="5" fill="#6ABE30" />
<rect x="28" y="16" width="1" height="4" fill="#6ABE30" />
<rect x="29" y="16" width="1" height="4" fill="#4B692F" />
<rect x="8" y="17" width="2" height="4" fill="#57A322" />
<rect x="11" y="17" width="1" height="2" fill="#6ABE30" />
<rect x="13" y="17" width="1" height="2" fill="#6ABE30" />
<rect x="14" y="17" width="3" height="1" fill="#4B692F" />
<rect x="17" y="17" width="1" height="3" fill="#6ABE30" />
<rect x="19" y="17" width="1" height="4" fill="#6ABE30" />
<rect x="10" y="18" width="1" height="4" fill="#57A322" />
<rect x="14" y="18" width="3" height="1" fill="#6ABE30" />
<rect x="11" y="19" width="4" height="3" fill="#57A322" />
<rect x="15" y="19" width="2" height="1" fill="#6ABE30" />
<rect x="3" y="20" width="1" height="1" fill="#4B692F" />
<rect x="5" y="20" width="1" height="1" fill="#6ABE30" />
<rect x="6" y="20" width="2" height="1" fill="#99E550" />
<rect x="15" y="20" width="3" height="4" fill="#57A322" />
<rect x="28" y="20" width="1" height="1" fill="#4B692F" />
<rect x="4" y="21" width="1" height="1" fill="#4B692F" />
<rect x="5" y="21" width="1" height="1" fill="#57A322" />
<rect x="6" y="21" width="2" height="1" fill="#6ABE30" />
<rect x="8" y="21" width="1" height="1" fill="#99E550" />
<rect x="9" y="21" width="1" height="1" fill="#57A322" />
<rect x="18" y="21" width="4" height="3" fill="#57A322" />
<rect x="22" y="21" width="1" height="1" fill="#6ABE30" />
<rect x="27" y="21" width="1" height="1" fill="#4B692F" />
<rect x="5" y="22" width="3" height="1" fill="#4B692F" />
<rect x="8" y="22" width="1" height="1" fill="#6ABE30" />
<rect x="9" y="22" width="3" height="1" fill="#99E550" />
<rect x="12" y="22" width="3" height="1" fill="#57A322" />
<rect x="22" y="22" width="3" height="1" fill="#57A322" />
<rect x="25" y="22" width="2" height="1" fill="#4B692F" />
<rect x="8" y="23" width="1" height="1" fill="#4B692F" />
<rect x="9" y="23" width="5" height="1" fill="#6ABE30" />
<rect x="14" y="23" width="1" height="1" fill="#57A322" />
<rect x="22" y="23" width="1" height="1" fill="#57A322" />
<rect x="23" y="23" width="2" height="1" fill="#4B692F" />
<rect x="9" y="24" width="14" height="1" fill="#4B692F" />
</svg>