<?xml version="1.0" encoding="UTF-8" ?>
<svg version="1.1" width="32" height="32" xmlns="http://www.w3.org/2000/svg" shape-rendering="crispEdges">
<rect x="12" y="7" width="2" height="1" fill="#000000" />
<rect x="10" y="8" width="2" height="1" fill="#000000" />
<rect x="12" y="8" width="2" height="1" fill="#464646" />
<rect x="14" y="8" width="1" height="1" fill="#000000" />
<rect x="9" y="9" width="1" height="1" fill="#000000" />
<rect x="10" y="9" width="2" height="1" fill="#464646" />
<rect x="12" y="9" width="1" height="2" fill="#000000" />
<rect x="13" y="9" width="1" height="1" fill="#1F1F1F" />
<rect x="14" y="9" width="1" height="2" fill="#2C2C2C" />
<rect x="15" y="9" width="6" height="1" fill="#000000" />
<rect x="22" y="9" width="1" height="1" fill="#000000" />
<rect x="8" y="10" width="1" height="2" fill="#000000" />
<rect x="9" y="10" width="1" height="1" fill="#464646" />
<rect x="10" y="10" width="2" height="1" fill="#1F1F1F" />
<rect x="13" y="10" width="1" height="1" fill="#000000" />
<rect x="15" y="10" width="5" height="4" fill="#464646" />
<rect x="20" y="10" width="1" height="1" fill="#2C2C2C" />
<rect x="21" y="10" width="1" height="1" fill="#000000" />
<rect x="22" y="10" width="1" height="1" fill="#464646" />
<rect x="23" y="10" width="2" height="1" fill="#000000" />
<rect x="7" y="11" width="1" height="1" fill="#000000" />
<rect x="9" y="11" width="1" height="1" fill="#1F1F1F" />
<rect x="10" y="11" width="2" height="1" fill="#000000" />
<rect x="12" y="11" width="1" height="1" fill="#2C2C2C" />
<rect x="13" y="11" width="2" height="5" fill="#464646" />
<rect x="20" y="11" width="1" height="1" fill="#464646" />
<rect x="21" y="11" width="1" height="1" fill="#2C2C2C" />
<rect x="22" y="11" width="1" height="1" fill="#1F1F1F" />
<rect x="23" y="11" width="1" height="1" fill="#464646" />
<rect x="24" y="11" width="1" height="1" fill="#2C2C2C" />
<rect x="25" y="11" width="1" height="1" fill="#000000" />
<rect x="6" y="12" width="1" height="1" fill="#000000" />
<rect x="7" y="12" width="2" height="1" fill="#464646" />
<rect x="9" y="12" width="1" height="1" fill="#000000" />
<rect x="10" y="12" width="1" height="5" fill="#2C2C2C" />
<rect x="11" y="12" width="2" height="4" fill="#464646" />
<rect x="20" y="12" width="1" height="1" fill="#2C2C2C" />
<rect x="21" y="12" width="3" height="1" fill="#000000" />
<rect x="24" y="12" width="1" height="1" fill="#1F1F1F" />
<rect x="25" y="12" width="1" height="1" fill="#2C2C2C" />
<rect x="26" y="12" width="1" height="3" fill="#000000" />
<rect x="5" y="13" width="1" height="1" fill="#000000" />
<rect x="6" y="13" width="1" height="1" fill="#464646" />
<rect x="7" y="13" width="2" height="1" fill="#1F1F1F" />
<rect x="9" y="13" width="1" height="2" fill="#2C2C2C" />
<rect x="20" y="13" width="2" height="1" fill="#000000" />
<rect x="22" y="13" width="2" height="1" fill="#464646" />
<rect x="24" y="13" width="1" height="2" fill="#000000" />
<rect x="25" y="13" width="1" height="2" fill="#1F1F1F" />
<rect x="4" y="14" width="1" height="1" fill="#000000" />
<rect x="5" y="14" width="1" height="1" fill="#2C2C2C" />
<rect x="6" y="14" width="1" height="1" fill="#1F1F1F" />
<rect x="7" y="14" width="1" height="2" fill="#000000" />
<rect x="8" y="14" width="1" height="1" fill="#1F1F1F" />
<rect x="15" y="14" width="4" height="2" fill="#464646" />
<rect x="19" y="14" width="1" height="1" fill="#2C2C2C" />
<rect x="20" y="14" width="1" height="1" fill="#000000" />
<rect x="21" y="14" width="2" height="1" fill="#1F1F1F" />
<rect x="23" y="14" width="1" height="1" fill="#2C2C2C" />
<rect x="3" y="15" width="1" height="1" fill="#000000" />
<rect x="4" y="15" width="1" height="1" fill="#2C2C2C" />
<rect x="5" y="15" width="2" height="1" fill="#000000" />
<rect x="8" y="15" width="1" height="1" fill="#000000" />
<rect x="9" y="15" width="1" height="1" fill="#1F1F1F" />
<rect x="19" y="15" width="1" height="3" fill="#000000" />
<rect x="20" y="15" width="2" height="1" fill="#1F1F1F" />
<rect x="22" y="15" width="1" height="1" fill="#000000" />
<rect x="23" y="15" width="1" height="1" fill="#1F1F1F" />
<rect x="24" y="15" width="1" height="2" fill="#2C2C2C" />
<rect x="25" y="15" width="1" height="2" fill="#000000" />
<rect x="26" y="15" width="1" height="2" fill="#1F1F1F" />
<rect x="27" y="15" width="2" height="1" fill="#000000" />
<rect x="2" y="16" width="1" height="1" fill="#000000" />
<rect x="3" y="16" width="1" height="1" fill="#2C2C2C" />
<rect x="4" y="16" width="1" height="1" fill="#1F1F1F" />
<rect x="5" y="16" width="1" height="1" fill="#000000" />
<rect x="6" y="16" width="1" height="1" fill="#2C2C2C" />
<rect x="7" y="16" width="3" height="1" fill="#464646" />
<rect x="11" y="16" width="3" height="1" fill="#2C2C2C" />
<rect x="14" y="16" width="3" height="1" fill="#464646" />
<rect x="17" y="16" width="2" height="1" fill="#2C2C2C" />
<rect x="20" y="16" width="1" height="1" fill="#1F1F1F" />
<rect x="21" y="16" width="1" height="2" fill="#000000" />
<rect x="23" y="16" width="1" height="3" fill="#000000" />
<rect x="27" y="16" width="2" height="1" fill="#2C2C2C" />
<rect x="29" y="16" width="1" height="2" fill="#000000" />
<rect x="1" y="17" width="1" height="1" fill="#000000" />
<rect x="2" y="17" width="2" height="1" fill="#1F1F1F" />
<rect x="4" y="17" width="1" height="4" fill="#000000" />
<rect x="5" y="17" width="1" height="1" fill="#4B692F" />
<rect x="6" y="17" width="1" height="2" fill="#1F1F1F" />
<rect x="7" y="17" width="3" height="1" fill="#2C2C2C" />
<rect x="10" y="17" width="1" height="1" fill="#4B692F" />
<rect x="11" y="17" width="1" height="4" fill="#1F1F1F" />
<rect x="12" y="17" width="4" height="1" fill="#2C2C2C" />
<rect x="16" y="17" width="2" height="1" fill="#000000" />
<rect x="18" y="17" width="1" height="1" fill="#464646" />
<rect x="20" y="17" width="1" height="2" fill="#000000" />
<rect x="24" y="17" width="1" height="1" fill="#1F1F1F" />
<rect x="25" y="17" width="1" height="1" fill="#2C2C2C" />
<rect x="26" y="17" width="3" height="1" fill="#000000" />
<rect x="2" y="18" width="2" height="1" fill="#000000" />
<rect x="5" y="18" width="1" height="1" fill="#1F1F1F" />
<rect x="7" y="18" width="4" height="1" fill="#1F1F1F" />
<rect x="12" y="18" width="4" height="2" fill="#1F1F1F" />
<rect x="16" y="18" width="2" height="1" fill="#2C2C2C" />
<rect x="18" y="18" width="1" height="1" fill="#1F1F1F" />
<rect x="19" y="18" width="1" height="1" fill="#464646" />
<rect x="24" y="18" width="1" height="1" fill="#000000" />
<rect x="25" y="18" width="1" height="1" fill="#1F1F1F" />
<rect x="26" y="18" width="1" height="1" fill="#000000" />
<rect x="5" y="19" width="2" height="2" fill="#4B692F" />
<rect x="7" y="19" width="2" height="3" fill="#1F1F1F" />
<rect x="9" y="19" width="2" height="2" fill="#4B692F" />
<rect x="16" y="19" width="2" height="1" fill="#1F1F1F" />
<rect x="18" y="19" width="1" height="1" fill="#000000" />
<rect x="19" y="19" width="1" height="1" fill="#1F1F1F" />
<rect x="20" y="19" width="1" height="2" fill="#2C2C2C" />
<rect x="21" y="19" width="1" height="2" fill="#000000" />
<rect x="25" y="19" width="1" height="2" fill="#000000" />
<rect x="26" y="19" width="1" height="2" fill="#1F1F1F" />
<rect x="27" y="19" width="2" height="1" fill="#000000" />
<rect x="12" y="20" width="1" height="4" fill="#000000" />
<rect x="13" y="20" width="1" height="1" fill="#1F1F1F" />
<rect x="14" y="20" width="1" height="2" fill="#000000" />
<rect x="15" y="20" width="2" height="1" fill="#1F1F1F" />
<rect x="17" y="20" width="1" height="1" fill="#000000" />
<rect x="19" y="20" width="1" height="2" fill="#000000" />
<rect x="27" y="20" width="2" height="1" fill="#2C2C2C" />
<rect x="29" y="20" width="1" height="1" fill="#000000" />
<rect x="3" y="21" width="1" height="1" fill="#000000" />
<rect x="4" y="21" width="1" height="2" fill="#1F1F1F" />
<rect x="5" y="21" width="1" height="1" fill="#FFFFFF" />
<rect x="6" y="21" width="1" height="1" fill="#1F1F1F" />
<rect x="9" y="21" width="1" height="1" fill="#1F1F1F" />
<rect x="10" y="21" width="1" height="1" fill="#FFFFFF" />
<rect x="11" y="21" width="1" height="1" fill="#000000" />
<rect x="13" y="21" width="1" height="1" fill="#2C2C2C" />
<rect x="15" y="21" width="1" height="2" fill="#000000" />
<rect x="20" y="21" width="1" height="1" fill="#1F1F1F" />
<rect x="21" y="21" width="1" height="2" fill="#2C2C2C" />
<rect x="22" y="21" width="1" height="2" fill="#000000" />
<rect x="26" y="21" width="3" height="1" fill="#000000" />
<rect x="2" y="22" width="1" height="4" fill="#000000" />
<rect x="3" y="22" width="1" height="1" fill="#1F1F1F" />
<rect x="5" y="22" width="1" height="1" fill="#9BADB7" />
<rect x="6" y="22" width="1" height="1" fill="#FFFFFF" />
<rect x="7" y="22" width="2" height="1" fill="#000000" />
<rect x="9" y="22" width="1" height="1" fill="#FFFFFF" />
<rect x="10" y="22" width="1" height="1" fill="#9BADB7" />
<rect x="13" y="22" width="2" height="2" fill="#1F1F1F" />
<rect x="20" y="22" width="1" height="1" fill="#000000" />
<rect x="3" y="23" width="1" height="3" fill="#2C2C2C" />
<rect x="4" y="23" width="1" height="3" fill="#000000" />
<rect x="6" y="23" width="1" height="1" fill="#9BADB7" />
<rect x="9" y="23" width="1" height="1" fill="#9BADB7" />
<rect x="15" y="23" width="1" height="2" fill="#1F1F1F" />
<rect x="16" y="23" width="1" height="2" fill="#000000" />
<rect x="21" y="23" width="1" height="2" fill="#000000" />
<rect x="22" y="23" width="1" height="1" fill="#2C2C2C" />
<rect x="23" y="23" width="2" height="1" fill="#000000" />
<rect x="13" y="24" width="1" height="1" fill="#000000" />
<rect x="14" y="24" width="1" height="2" fill="#1F1F1F" />
<rect x="22" y="24" width="1" height="1" fill="#1F1F1F" />
<rect x="23" y="24" width="2" height="1" fill="#2C2C2C" />
<rect x="25" y="24" width="1" height="1" fill="#000000" />
<rect x="12" y="25" width="1" height="1" fill="#000000" />
<rect x="13" y="25" width="1" height="2" fill="#1F1F1F" />
<rect x="15" y="25" width="1" height="1" fill="#000000" />
<rect x="22" y="25" width="3" height="1" fill="#000000" />
<rect x="3" y="26" width="1" height="1" fill="#000000" />
<rect x="11" y="26" width="1" height="1" fill="#000000" />
<rect x="12" y="26" width="1" height="2" fill="#1F1F1F" />
<rect x="14" y="26" width="1" height="1" fill="#000000" />
<rect x="9" y="27" width="2" height="1" fill="#000000" />
<rect x="11" y="27" width="1" height="1" fill="#1F1F1F" />
<rect x="13" y="27" width="1" height="1" fill="#000000" />
<rect x="8" y="28" width="1" height="2" fill="#000000" />
<rect x="9" y="28" width="3" height="1" fill="#2C2C2C" />
<rect x="12" y="28" width="1" height="1" fill="#000000" />
<rect x="9" y="29" width="1" height="1" fill="#2C2C2C" />
<rect x="10" y="29" width="2" height="1" fill="#000000" />
<rect x="9" y="30" width="1" height="1" fill="#000000" />
</svg>