<?xml version="1.0" encoding="UTF-8" ?>
<svg version="1.1" width="32" height="32" xmlns="http://www.w3.org/2000/svg" shape-rendering="crispEdges">
<rect x="11" y="7" width="2" height="1" fill="#000000" />
<rect x="9" y="8" width="2" height="1" fill="#000000" />
<rect x="11" y="8" width="2" height="1" fill="#464646" />
<rect x="13" y="8" width="1" height="1" fill="#000000" />
<rect x="8" y="9" width="1" height="1" fill="#000000" />
<rect x="9" y="9" width="2" height="1" fill="#464646" />
<rect x="11" y="9" width="1" height="2" fill="#000000" />
<rect x="12" y="9" width="1" height="2" fill="#1F1F1F" />
<rect x="13" y="9" width="1" height="1" fill="#2C2C2C" />
<rect x="14" y="9" width="1" height="2" fill="#000000" />
<rect x="21" y="9" width="3" height="1" fill="#000000" />
<rect x="7" y="10" width="1" height="2" fill="#000000" />
<rect x="8" y="10" width="1" height="1" fill="#464646" />
<rect x="9" y="10" width="2" height="1" fill="#1F1F1F" />
<rect x="13" y="10" width="1" height="1" fill="#1F1F1F" />
<rect x="15" y="10" width="7" height="1" fill="#000000" />
<rect x="22" y="10" width="2" height="1" fill="#464646" />
<rect x="24" y="10" width="2" height="1" fill="#000000" />
<rect x="6" y="11" width="1" height="1" fill="#000000" />
<rect x="8" y="11" width="1" height="1" fill="#1F1F1F" />
<rect x="9" y="11" width="1" height="1" fill="#000000" />
<rect x="10" y="11" width="2" height="1" fill="#1F1F1F" />
<rect x="12" y="11" width="2" height="1" fill="#000000" />
<rect x="14" y="11" width="1" height="1" fill="#2C2C2C" />
<rect x="15" y="11" width="5" height="3" fill="#464646" />
<rect x="20" y="11" width="1" height="1" fill="#2C2C2C" />
<rect x="21" y="11" width="1" height="1" fill="#000000" />
<rect x="22" y="11" width="2" height="1" fill="#1F1F1F" />
<rect x="24" y="11" width="1" height="1" fill="#464646" />
<rect x="25" y="11" width="1" height="1" fill="#2C2C2C" />
<rect x="26" y="11" width="1" height="1" fill="#000000" />
<rect x="5" y="12" width="1" height="1" fill="#000000" />
<rect x="6" y="12" width="2" height="1" fill="#464646" />
<rect x="8" y="12" width="1" height="1" fill="#000000" />
<rect x="10" y="12" width="2" height="1" fill="#000000" />
<rect x="12" y="12" width="1" height="1" fill="#2C2C2C" />
<rect x="13" y="12" width="2" height="4" fill="#464646" />
<rect x="20" y="12" width="1" height="1" fill="#464646" />
<rect x="21" y="12" width="1" height="1" fill="#2C2C2C" />
<rect x="22" y="12" width="3" height="1" fill="#000000" />
<rect x="25" y="12" width="1" height="1" fill="#1F1F1F" />
<rect x="26" y="12" width="1" height="1" fill="#2C2C2C" />
<rect x="27" y="12" width="1" height="3" fill="#000000" />
<rect x="4" y="13" width="1" height="1" fill="#000000" />
<rect x="5" y="13" width="1" height="1" fill="#464646" />
<rect x="6" y="13" width="2" height="1" fill="#1F1F1F" />
<rect x="8" y="13" width="1" height="1" fill="#2C2C2C" />
<rect x="9" y="13" width="2" height="1" fill="#000000" />
<rect x="11" y="13" width="1" height="5" fill="#2C2C2C" />
<rect x="12" y="13" width="1" height="3" fill="#464646" />
<rect x="20" y="13" width="1" height="1" fill="#2C2C2C" />
<rect x="21" y="13" width="2" height="1" fill="#000000" />
<rect x="23" y="13" width="2" height="1" fill="#464646" />
<rect x="25" y="13" width="1" height="2" fill="#000000" />
<rect x="26" y="13" width="1" height="2" fill="#1F1F1F" />
<rect x="3" y="14" width="1" height="1" fill="#000000" />
<rect x="4" y="14" width="1" height="1" fill="#2C2C2C" />
<rect x="5" y="14" width="1" height="1" fill="#1F1F1F" />
<rect x="6" y="14" width="1" height="1" fill="#000000" />
<rect x="7" y="14" width="3" height="1" fill="#1F1F1F" />
<rect x="10" y="14" width="1" height="2" fill="#2C2C2C" />
<rect x="15" y="14" width="4" height="2" fill="#464646" />
<rect x="19" y="14" width="1" height="1" fill="#2C2C2C" />
<rect x="20" y="14" width="1" height="1" fill="#000000" />
<rect x="21" y="14" width="1" height="1" fill="#2C2C2C" />
<rect x="22" y="14" width="2" height="1" fill="#1F1F1F" />
<rect x="24" y="14" width="1" height="1" fill="#2C2C2C" />
<rect x="2" y="15" width="1" height="1" fill="#000000" />
<rect x="3" y="15" width="1" height="1" fill="#2C2C2C" />
<rect x="4" y="15" width="1" height="1" fill="#1F1F1F" />
<rect x="5" y="15" width="1" height="1" fill="#000000" />
<rect x="7" y="15" width="1" height="2" fill="#000000" />
<rect x="8" y="15" width="1" height="1" fill="#1F1F1F" />
<rect x="9" y="15" width="1" height="2" fill="#000000" />
<rect x="19" y="15" width="1" height="2" fill="#000000" />
<rect x="20" y="15" width="3" height="1" fill="#1F1F1F" />
<rect x="23" y="15" width="1" height="1" fill="#000000" />
<rect x="24" y="15" width="1" height="1" fill="#1F1F1F" />
<rect x="25" y="15" width="1" height="2" fill="#2C2C2C" />
<rect x="26" y="15" width="1" height="2" fill="#000000" />
<rect x="27" y="15" width="1" height="2" fill="#1F1F1F" />
<rect x="28" y="15" width="2" height="1" fill="#000000" />
<rect x="1" y="16" width="1" height="1" fill="#000000" />
<rect x="2" y="16" width="1" height="1" fill="#2C2C2C" />
<rect x="3" y="16" width="1" height="1" fill="#1F1F1F" />
<rect x="4" y="16" width="1" height="6" fill="#000000" />
<rect x="6" y="16" width="1" height="1" fill="#000000" />
<rect x="8" y="16" width="1" height="1" fill="#000000" />
<rect x="10" y="16" width="1" height="1" fill="#1F1F1F" />
<rect x="12" y="16" width="2" height="2" fill="#2C2C2C" />
<rect x="14" y="16" width="4" height="1" fill="#464646" />
<rect x="18" y="16" width="1" height="1" fill="#2C2C2C" />
<rect x="20" y="16" width="1" height="2" fill="#000000" />
<rect x="21" y="16" width="1" height="1" fill="#1F1F1F" />
<rect x="22" y="16" width="1" height="2" fill="#000000" />
<rect x="24" y="16" width="1" height="3" fill="#000000" />
<rect x="28" y="16" width="2" height="1" fill="#2C2C2C" />
<rect x="30" y="16" width="1" height="2" fill="#000000" />
<rect x="0" y="17" width="1" height="1" fill="#000000" />
<rect x="1" y="17" width="2" height="1" fill="#1F1F1F" />
<rect x="3" y="17" width="1" height="1" fill="#000000" />
<rect x="5" y="17" width="1" height="1" fill="#000000" />
<rect x="6" y="17" width="1" height="1" fill="#2C2C2C" />
<rect x="7" y="17" width="3" height="1" fill="#464646" />
<rect x="10" y="17" width="1" height="1" fill="#000000" />
<rect x="14" y="17" width="3" height="1" fill="#2C2C2C" />
<rect x="17" y="17" width="2" height="1" fill="#000000" />
<rect x="19" y="17" width="1" height="1" fill="#464646" />
<rect x="21" y="17" width="1" height="2" fill="#000000" />
<rect x="25" y="17" width="1" height="1" fill="#1F1F1F" />
<rect x="26" y="17" width="1" height="1" fill="#2C2C2C" />
<rect x="27" y="17" width="3" height="1" fill="#000000" />
<rect x="1" y="18" width="2" height="1" fill="#000000" />
<rect x="5" y="18" width="1" height="1" fill="#4B692F" />
<rect x="6" y="18" width="1" height="2" fill="#1F1F1F" />
<rect x="7" y="18" width="3" height="1" fill="#2C2C2C" />
<rect x="10" y="18" width="1" height="1" fill="#4B692F" />
<rect x="11" y="18" width="1" height="1" fill="#000000" />
<rect x="12" y="18" width="4" height="1" fill="#1F1F1F" />
<rect x="16" y="18" width="1" height="1" fill="#000000" />
<rect x="17" y="18" width="2" height="1" fill="#2C2C2C" />
<rect x="19" y="18" width="1" height="1" fill="#1F1F1F" />
<rect x="20" y="18" width="1" height="1" fill="#464646" />
<rect x="25" y="18" width="1" height="1" fill="#000000" />
<rect x="26" y="18" width="1" height="1" fill="#1F1F1F" />
<rect x="27" y="18" width="1" height="1" fill="#000000" />
<rect x="5" y="19" width="1" height="1" fill="#1F1F1F" />
<rect x="7" y="19" width="8" height="1" fill="#1F1F1F" />
<rect x="15" y="19" width="1" height="2" fill="#000000" />
<rect x="16" y="19" width="3" height="1" fill="#1F1F1F" />
<rect x="19" y="19" width="1" height="1" fill="#000000" />
<rect x="20" y="19" width="1" height="1" fill="#1F1F1F" />
<rect x="21" y="19" width="1" height="2" fill="#2C2C2C" />
<rect x="22" y="19" width="1" height="2" fill="#000000" />
<rect x="26" y="19" width="1" height="2" fill="#000000" />
<rect x="27" y="19" width="1" height="2" fill="#1F1F1F" />
<rect x="28" y="19" width="2" height="1" fill="#000000" />
<rect x="3" y="20" width="1" height="1" fill="#000000" />
<rect x="5" y="20" width="1" height="1" fill="#99E550" />
<rect x="6" y="20" width="1" height="2" fill="#4B692F" />
<rect x="7" y="20" width="2" height="3" fill="#1F1F1F" />
<rect x="9" y="20" width="1" height="1" fill="#99E550" />
<rect x="10" y="20" width="1" height="2" fill="#4B692F" />
<rect x="11" y="20" width="3" height="1" fill="#1F1F1F" />
<rect x="14" y="20" width="1" height="1" fill="#000000" />
<rect x="16" y="20" width="2" height="1" fill="#1F1F1F" />
<rect x="18" y="20" width="1" height="1" fill="#000000" />
<rect x="20" y="20" width="1" height="2" fill="#000000" />
<rect x="28" y="20" width="2" height="1" fill="#2C2C2C" />
<rect x="30" y="20" width="1" height="1" fill="#000000" />
<rect x="2" y="21" width="1" height="1" fill="#000000" />
<rect x="3" y="21" width="1" height="2" fill="#1F1F1F" />
<rect x="5" y="21" width="1" height="1" fill="#4B692F" />
<rect x="9" y="21" width="1" height="1" fill="#4B692F" />
<rect x="11" y="21" width="1" height="1" fill="#1F1F1F" />
<rect x="12" y="21" width="2" height="1" fill="#000000" />
<rect x="14" y="21" width="2" height="1" fill="#2C2C2C" />
<rect x="16" y="21" width="2" height="1" fill="#000000" />
<rect x="21" y="21" width="1" height="1" fill="#1F1F1F" />
<rect x="22" y="21" width="1" height="2" fill="#2C2C2C" />
<rect x="23" y="21" width="1" height="2" fill="#000000" />
<rect x="27" y="21" width="3" height="1" fill="#000000" />
<rect x="1" y="22" width="1" height="4" fill="#000000" />
<rect x="2" y="22" width="1" height="1" fill="#1F1F1F" />
<rect x="4" y="22" width="1" height="1" fill="#1F1F1F" />
<rect x="5" y="22" width="1" height="1" fill="#FFFFFF" />
<rect x="6" y="22" width="1" height="1" fill="#1F1F1F" />
<rect x="9" y="22" width="1" height="1" fill="#1F1F1F" />
<rect x="10" y="22" width="1" height="1" fill="#FFFFFF" />
<rect x="11" y="22" width="1" height="1" fill="#000000" />
<rect x="13" y="22" width="1" height="2" fill="#000000" />
<rect x="14" y="22" width="2" height="2" fill="#1F1F1F" />
<rect x="16" y="22" width="1" height="1" fill="#000000" />
<rect x="21" y="22" width="1" height="1" fill="#000000" />
<rect x="2" y="23" width="2" height="1" fill="#2C2C2C" />
<rect x="4" y="23" width="1" height="1" fill="#000000" />
<rect x="5" y="23" width="1" height="1" fill="#9BADB7" />
<rect x="6" y="23" width="1" height="1" fill="#FFFFFF" />
<rect x="7" y="23" width="2" height="1" fill="#000000" />
<rect x="9" y="23" width="1" height="1" fill="#FFFFFF" />
<rect x="10" y="23" width="1" height="1" fill="#9BADB7" />
<rect x="16" y="23" width="1" height="2" fill="#1F1F1F" />
<rect x="17" y="23" width="1" height="2" fill="#000000" />
<rect x="22" y="23" width="1" height="2" fill="#000000" />
<rect x="23" y="23" width="1" height="1" fill="#2C2C2C" />
<rect x="24" y="23" width="2" height="1" fill="#000000" />
<rect x="2" y="24" width="1" height="2" fill="#2C2C2C" />
<rect x="3" y="24" width="1" height="2" fill="#000000" />
<rect x="6" y="24" width="1" height="1" fill="#9BADB7" />
<rect x="9" y="24" width="1" height="1" fill="#9BADB7" />
<rect x="14" y="24" width="1" height="1" fill="#000000" />
<rect x="15" y="24" width="1" height="2" fill="#1F1F1F" />
<rect x="23" y="24" width="1" height="1" fill="#1F1F1F" />
<rect x="24" y="24" width="2" height="1" fill="#2C2C2C" />
<rect x="26" y="24" width="1" height="1" fill="#000000" />
<rect x="13" y="25" width="1" height="1" fill="#000000" />
<rect x="14" y="25" width="1" height="2" fill="#1F1F1F" />
<rect x="16" y="25" width="1" height="1" fill="#000000" />
<rect x="23" y="25" width="3" height="1" fill="#000000" />
<rect x="2" y="26" width="1" height="1" fill="#000000" />
<rect x="12" y="26" width="1" height="1" fill="#000000" />
<rect x="13" y="26" width="1" height="2" fill="#1F1F1F" />
<rect x="15" y="26" width="1" height="1" fill="#000000" />
<rect x="10" y="27" width="2" height="1" fill="#000000" />
<rect x="12" y="27" width="1" height="1" fill="#1F1F1F" />
<rect x="14" y="27" width="1" height="1" fill="#000000" />
<rect x="9" y="28" width="1" height="2" fill="#000000" />
<rect x="10" y="28" width="3" height="1" fill="#2C2C2C" />
<rect x="13" y="28" width="1" height="1" fill="#000000" />
<rect x="10" y="29" width="1" height="1" fill="#2C2C2C" />
<rect x="11" y="29" width="2" height="1" fill="#000000" />
<rect x="10" y="30" width="1" height="1" fill="#000000" />
</svg>